<svg width="16" height="16" viewBox="0 0 16 16" fill="none" xmlns="http://www.w3.org/2000/svg">
<path fill-rule="evenodd" clip-rule="evenodd" d="M13.3359 1H2.66413C1.745 1 1 1.74309 1 2.66031V13.3397C1 14.2565 1.745 15 2.66413 15H13.3359C14.255 15 15 14.2565 15 13.3397V2.66031C15 1.74309 14.255 1 13.3359 1ZM11.0627 3.18727C11.0627 2.94594 11.2586 2.75005 11.4999 2.75005H12.8124C13.0542 2.75005 13.2501 2.94594 13.2501 3.18727V4.5001C13.2501 4.74143 13.0542 4.93732 12.8124 4.93732H11.4999C11.2586 4.93732 11.0627 4.74143 11.0627 4.5001V3.18727V3.18727ZM8.01623 5.33025C9.50318 5.33025 10.7087 6.5331 10.7087 8.01623C10.7087 9.49974 9.50318 10.7022 8.01623 10.7022C6.52966 10.7022 5.32414 9.49974 5.32414 8.01623C5.32414 6.5331 6.52966 5.33025 8.01623 5.33025ZM13.6874 13.25C13.6874 13.4913 13.4916 13.6876 13.2498 13.6876H2.75004C2.50833 13.6876 2.31244 13.4913 2.31244 13.25V6.68737H4.06247C3.8345 7.01538 3.75737 7.6275 3.75737 8.01623C3.75737 10.3589 5.66816 12.2651 8.01617 12.2651C10.3646 12.2651 12.2754 10.3589 12.2754 8.01623C12.2754 7.6275 12.22 7.02493 11.9374 6.68737H13.6874V13.25V13.25Z" fill="black" fill-opacity="0.08"/>
</svg>
