<svg width="16" height="16" viewBox="0 0 16 16" fill="none" xmlns="http://www.w3.org/2000/svg">
<path fill-rule="evenodd" clip-rule="evenodd" d="M15 4.12574C14.4849 4.35067 13.9314 4.5027 13.3503 4.57104C13.9433 4.22107 14.3988 3.66701 14.6132 3.00673C14.0582 3.33081 13.4436 3.56603 12.7893 3.69284C12.2654 3.14335 11.5188 2.79999 10.6928 2.79999C9.10653 2.79999 7.82048 4.06591 7.82048 5.62736C7.82048 5.84896 7.84588 6.06476 7.89489 6.2717C5.50774 6.15382 3.39131 5.02813 1.9747 3.31752C1.72744 3.73509 1.58582 4.22073 1.58582 4.73894C1.58582 5.7199 2.09286 6.58536 2.86357 7.0924C2.39272 7.07768 1.94985 6.95053 1.56263 6.73868C1.56235 6.7506 1.56235 6.76239 1.56235 6.77431C1.56235 8.14422 2.55242 9.28695 3.86637 9.5467C3.62534 9.61136 3.37165 9.64598 3.10965 9.64598C2.92462 9.64598 2.74464 9.6282 2.56924 9.59528C2.93479 10.7185 3.99554 11.536 5.25238 11.5588C4.26937 12.317 3.03094 12.7692 1.68522 12.7692C1.45333 12.7692 1.22469 12.7557 1 12.7295C2.2711 13.5319 3.78088 14 5.40294 14C10.686 14 13.5751 9.6915 13.5751 5.95519C13.5751 5.83267 13.5723 5.71077 13.5668 5.58941C14.128 5.19078 14.6149 4.69281 15 4.12574Z" fill="black" fill-opacity="0.08"/>
</svg>
